{
  "accessors": [
    {
      "bufferView": 1,
      "componentType": 5126,
      "count": 23040,
      "max": [
        0.9887599945068359,
        0.9885500073432922,
        0.9908300042152405
      ],
      "min": [
        -0.9887599945068359,
        -0.9885500073432922,
        -0.9908300042152405
      ],
      "type": "VEC3"
    },
    {
      "bufferView": 1,
      "byteOffset": 276480,
      "componentType": 5126,
      "count": 23040,
      "max": [
        0.9999983310699463,
        0.9997021555900574,
        0.9999947547912598
      ],
      "min": [
        -0.9999983310699463,
        -0.9997021555900574,
        -0.9999947547912598
      ],
      "type": "VEC3"
    },
    {
      "bufferView": 0,
      "componentType": 5125,
      "count": 34560,
      "type": "SCALAR"
    },
    {
      "bufferView": 1,
      "byteOffset": 552960,
      "componentType": 5126,
      "count": 3923,
      "max": [
        0.9852700233459473,
        0.985069990158081,
        0.987339973449707
      ],
      "min": [
        -0.9852700233459473,
        -0.985069990158081,
        -0.987339973449707
      ],
      "type": "VEC3"
    },
    {
      "bufferView": 1,
      "byteOffset": 600036,
      "componentType": 5126,
      "count": 3923,
      "max": [
        0.9999749064445496,
        0.9999887943267822,
        1.0
      ],
      "min": [
        -0.9999749064445496,
        -0.9999887943267822,
        -1.0
      ],
      "type": "VEC3"
    },
    {
      "bufferView": 0,
      "byteOffset": 138240,
      "componentType": 5125,
      "count": 5748,
      "type": "SCALAR"
    }
  ],
  "asset": {
    "extras": {
      "author": "sirkitree (https://sketchfab.com/sirkitree)",
      "license": "CC-BY-4.0 (http://creativecommons.org/licenses/by/4.0/)",
      "source": "https://sketchfab.com/3d-models/hex-sphere-2d4f7dde4bda4987960f73a8a711ace7",
      "title": "Hex-sphere"
    },
    "generator": "Sketchfab-12.66.0",
    "version": "2.0"
  },
  "bufferViews": [
    {
      "buffer": 0,
      "byteLength": 161232,
      "name": "floatBufferViews",
      "target": 34963
    },
    {
      "buffer": 0,
      "byteLength": 647112,
      "byteOffset": 161232,
      "byteStride": 12,
      "name": "floatBufferViews",
      "target": 34962
    }
  ],
  "buffers": [
    {
      "byteLength": 808344,
      "uri": "scene.bin"
    }
  ],
  "extensionsUsed": [
    "KHR_materials_unlit"
  ],
  "materials": [
    {
      "doubleSided": true,
      "extensions": {
        "KHR_materials_unlit": {}
      },
      "name": "Black",
      "pbrMetallicRoughness": {
        "baseColorFactor": [
          0.0,
          0.0,
          0.0,
          1.0
        ],
        "metallicFactor": 0.0
      }
    },
    {
      "doubleSided": true,
      "extensions": {
        "KHR_materials_unlit": {}
      },
      "name": "Blue",
      "pbrMetallicRoughness": {
        "baseColorFactor": [
          0.0,
          0.7815401554107666,
          0.8000000715255737,
          1.0
        ],
        "metallicFactor": 0.0
      }
    }
  ],
  "meshes": [
    {
      "name": "Frame_0",
      "primitives": [
        {
          "attributes": {
            "NORMAL": 1,
            "POSITION": 0
          },
          "indices": 2,
          "material": 1,
          "mode": 4
        }
      ]
    },
    {
      "name": "Sphere_0",
      "primitives": [
        {
          "attributes": {
            "NORMAL": 4,
            "POSITION": 3
          },
          "indices": 5,
          "material": 0,
          "mode": 4
        }
      ]
    }
  ],
  "nodes": [
    {
      "children": [
        1
      ],
      "matrix": [
        1.0,
        0.0,
        0.0,
        0.0,
        0.0,
        2.220446049250313e-16,
        -1.0,
        0.0,
        0.0,
        1.0,
        2.220446049250313e-16,
        0.0,
        0.0,
        0.0,
        0.0,
        1.0
      ],
      "name": "Sketchfab_model"
    },
    {
      "children": [
        2,
        4
      ],
      "name": "Root"
    },
    {
      "children": [
        3
      ],
      "name": "Frame"
    },
    {
      "mesh": 0,
      "name": "Frame_0"
    },
    {
      "children": [
        5
      ],
      "name": "Sphere"
    },
    {
      "mesh": 1,
      "name": "Sphere_0"
    }
  ],
  "scene": 0,
  "scenes": [
    {
      "name": "Sketchfab_Scene",
      "nodes": [
        0
      ]
    }
  ]
}
